<svg xmlns="http://www.w3.org/2000/svg" viewBox="0 0 50 50"><defs><style>.cls-1{fill:#fff;stroke:#fff;stroke-miterlimit:10;}</style></defs><g id="Capa_2" data-name="Capa 2"><g id="Capa_1-2" data-name="Capa 1"><rect width="50" height="50"/><path class="cls-1" d="M2.5,36.3v-.87H4.63V14.57H2.5V13.7H9.31a8.16,8.16,0,0,1,2.13.32,7.27,7.27,0,0,1,2.2,1,5.56,5.56,0,0,1,1.68,1.79A5,5,0,0,1,16,19.51a5.62,5.62,0,0,1-1.78,4.36,7.29,7.29,0,0,1-5.1,1.61H5.54v10h3v.87Zm3-11.72H9.05A7.72,7.72,0,0,0,12,24.1a5.68,5.68,0,0,0,1.88-1.23,4.31,4.31,0,0,0,1-1.63,5.93,5.93,0,0,0,.27-1.73,4.11,4.11,0,0,0-.45-1.86,5.27,5.27,0,0,0-1.26-1.59A6.21,6.21,0,0,0,11.48,15a7.13,7.13,0,0,0-2.39-.4H5.54Z"/><path class="cls-1" d="M18.63,36.3v-.87h2.55V14.57H18.63V13.7h3.3q2.89,3.75,5.86,7.62T33,28.1q2.78-3.59,5.54-7.2t5.54-7.2h3.29v.87H44.82V35.43H47.5v.87H41.43v-.87h2.49V16.64c0-.3,0-.54,0-.7s0-.39,0-.69c-.17.24-.31.43-.42.6l-.42.59L33,29.62,22.64,16.09l-.31-.41a3,3,0,0,1-.27-.43c0,.24,0,.47,0,.69s0,.46,0,.7V35.43H24.7v.87Z"/></g></g></svg>