<svg xmlns="http://www.w3.org/2000/svg" viewBox="0 0 198.33 13.93"><defs><style>.cls-1{fill:#b2b2b2;}</style></defs><g id="Capa_2" data-name="Capa 2"><g id="Capa_1-2" data-name="Capa 1"><path d="M0,10.45v-.38H.92v-9H0V.7H2.94a3.22,3.22,0,0,1,.92.14,3.27,3.27,0,0,1,.95.44,2.7,2.7,0,0,1,.72.78A2.1,2.1,0,0,1,5.82,3.2a2.41,2.41,0,0,1-.76,1.88,3.14,3.14,0,0,1-2.2.7H1.31v4.29H2.62v.38ZM1.31,5.39H2.83A3.34,3.34,0,0,0,4.1,5.18a2.24,2.24,0,0,0,.8-.53A1.73,1.73,0,0,0,5.31,4a2.5,2.5,0,0,0,.12-.75,1.77,1.77,0,0,0-.19-.8,2.36,2.36,0,0,0-.55-.69,2.61,2.61,0,0,0-.82-.46,2.86,2.86,0,0,0-1-.18H1.31Z"/><path d="M12.58,10.45v-1c0-.12,0-.25,0-.38a2,2,0,0,1-.35.58,2.18,2.18,0,0,1-.53.47,2.47,2.47,0,0,1-.69.34,2.64,2.64,0,0,1-.81.12,2.73,2.73,0,0,1-1.07-.22,2.55,2.55,0,0,1-.85-.59,2.59,2.59,0,0,1-.8-1.91A2.71,2.71,0,0,1,7.7,6.77a2.59,2.59,0,0,1,.59-.86,2.67,2.67,0,0,1,.85-.58,2.73,2.73,0,0,1,1.07-.22,2.54,2.54,0,0,1,1.48.44,2.5,2.5,0,0,1,.89,1.08l0-.69c0-.24,0-.47,0-.72h.31v4.85h1v.38ZM9.3,5.68a2.27,2.27,0,0,0-.75.51,2.72,2.72,0,0,0-.49.74,2.26,2.26,0,0,0-.18.9,2.41,2.41,0,0,0,.19.93,2.2,2.2,0,0,0,.52.74,2.11,2.11,0,0,0,.73.48,2.21,2.21,0,0,0,.89.18,2.32,2.32,0,0,0,.91-.19,2.53,2.53,0,0,0,.75-.48,2.48,2.48,0,0,0,.5-.74,2.32,2.32,0,0,0,.18-.92,2.27,2.27,0,0,0-.18-.91,2.3,2.3,0,0,0-1.25-1.25,2.31,2.31,0,0,0-.91-.18A2.12,2.12,0,0,0,9.3,5.68Z"/><path d="M15.64,10.45v-.38h1.09V5.6h-1V5.22H17l0,.74a2.55,2.55,0,0,0,0,.31c0,.06,0,.17,0,.32a2.64,2.64,0,0,1,.4-.62A2.06,2.06,0,0,1,18,5.52a2.37,2.37,0,0,1,.62-.3,2.52,2.52,0,0,1,.67-.09V5.5a2.78,2.78,0,0,0-.83.16,2.36,2.36,0,0,0-.69.4,2.14,2.14,0,0,0-.49.63,1.71,1.71,0,0,0-.19.8v2.58H18.2v.38Z"/><path d="M21,10.45v-.38h1.12V5.6H21V5.22h1.51v4.85h1.06v.38Zm1.56-6.76a.37.37,0,0,1-.25.1.4.4,0,0,1-.26-.1.33.33,0,0,1-.11-.26.38.38,0,0,1,.37-.38.34.34,0,0,1,.25.11.37.37,0,0,1,.12.27A.34.34,0,0,1,22.56,3.69Z"/><path d="M27.84,10.41a1.87,1.87,0,0,1-.78.15,3.34,3.34,0,0,1-.82-.1,1.6,1.6,0,0,1-.75-.39v-1h.38v.76a1.25,1.25,0,0,0,.59.26,4.74,4.74,0,0,0,.65.05,1.39,1.39,0,0,0,.46-.07,1.2,1.2,0,0,0,.4-.22,1.19,1.19,0,0,0,.28-.34,1.07,1.07,0,0,0,.11-.49.88.88,0,0,0-.2-.61,1.15,1.15,0,0,0-.48-.33A4.92,4.92,0,0,0,27,7.88a2.66,2.66,0,0,1-.65-.25,1.18,1.18,0,0,1-.49-.37,1,1,0,0,1-.21-.68A1.42,1.42,0,0,1,25.81,6a1.22,1.22,0,0,1,.33-.44,1.51,1.51,0,0,1,.52-.27,1.88,1.88,0,0,1,.54-.1,1.83,1.83,0,0,1,.35,0,2.07,2.07,0,0,1,.39.09,1.56,1.56,0,0,1,.33.14.93.93,0,0,1,.27.19v1h-.36V5.8a1.48,1.48,0,0,0-.47-.2,2.18,2.18,0,0,0-.52-.06,1.89,1.89,0,0,0-.39,0,1.19,1.19,0,0,0-.36.16,1,1,0,0,0-.27.32,1,1,0,0,0-.1.45.73.73,0,0,0,.21.56,1.35,1.35,0,0,0,.49.3,3.61,3.61,0,0,0,.65.24,4.6,4.6,0,0,1,.65.25,1.65,1.65,0,0,1,.48.43,1.19,1.19,0,0,1,.2.71,1.73,1.73,0,0,1-.09.53,1.44,1.44,0,0,1-.29.49A1.47,1.47,0,0,1,27.84,10.41Z"/><path d="M30.36,10.45v-.38h1.1v-9h-1.1V.7h1.43c.83,1.07,1.67,2.17,2.52,3.28s1.6,2.09,2.25,2.93c.8-1,1.6-2.07,2.39-3.11L41.34.7h1.42v.37h-1.1v9h1.16v.38H40.2v-.38h1.07V2a2.37,2.37,0,0,1,0-.3v-.3l-.18.25a2.08,2.08,0,0,1-.18.26L36.56,7.56,32.09,1.73C32,1.65,32,1.6,32,1.55l-.12-.18c0,.1,0,.2,0,.3v8.4H33v.38Z"/><path d="M49.57,10.45V9.79c0-.13,0-.25,0-.37s0-.25,0-.38a2.3,2.3,0,0,1-.35.58,2.38,2.38,0,0,1-.53.47,2.57,2.57,0,0,1-1.51.46,2.68,2.68,0,0,1-1.06-.22,2.59,2.59,0,0,1-.86-.59,2.62,2.62,0,0,1-.58-.85,2.67,2.67,0,0,1-.21-1.06,2.71,2.71,0,0,1,.21-1.06,2.56,2.56,0,0,1,.58-.86,2.72,2.72,0,0,1,.86-.58,2.68,2.68,0,0,1,1.06-.22,2.54,2.54,0,0,1,1.48.44,2.37,2.37,0,0,1,.89,1.08l0-.69,0-.72h.3v4.85h1v.38ZM46.29,5.68a2.23,2.23,0,0,0-.74.51,2.33,2.33,0,0,0-.49.74,2.36,2.36,0,0,0,0,1.83,2.07,2.07,0,0,0,.52.74,2,2,0,0,0,.72.48,2.25,2.25,0,0,0,.89.18,2.37,2.37,0,0,0,.92-.19,2.48,2.48,0,0,0,.74-.48,2.3,2.3,0,0,0,.68-1.66,2.27,2.27,0,0,0-.18-.91,2.24,2.24,0,0,0-.5-.75,2.3,2.3,0,0,0-1.66-.68A2.15,2.15,0,0,0,46.29,5.68Z"/><path d="M52.64,10.07h1V.38h-1V0h1.4V5.87c0,.15,0,.28,0,.36s0,.22,0,.39A1.93,1.93,0,0,1,54.38,6a2.7,2.7,0,0,1,.53-.47,2.45,2.45,0,0,1,.69-.33,2.63,2.63,0,0,1,.8-.12,2.76,2.76,0,0,1,1.06.22,2.88,2.88,0,0,1,.87.58,2.54,2.54,0,0,1,.57.86,2.71,2.71,0,0,1,.21,1.06,2.67,2.67,0,0,1-.21,1.06,2.59,2.59,0,0,1-.57.85,2.75,2.75,0,0,1-2.75.69,2.35,2.35,0,0,1-.67-.34,2.1,2.1,0,0,1-.55-.47A1.64,1.64,0,0,1,54,9v.38c0,.12,0,.24,0,.37v.66H52.64Zm2.83-4.39a2.23,2.23,0,0,0-.74.51,2.2,2.2,0,0,0-.5.74,2.44,2.44,0,0,0-.17.9,2.41,2.41,0,0,0,.18.93,2.31,2.31,0,0,0,.5.73,2.48,2.48,0,0,0,.74.48,2.29,2.29,0,0,0,.92.19,2.34,2.34,0,0,0,.9-.19,2.15,2.15,0,0,0,.75-.5,2.18,2.18,0,0,0,.49-.73,2.31,2.31,0,0,0,.18-.91,2.36,2.36,0,0,0-.18-.92,2.46,2.46,0,0,0-.5-.75,2.34,2.34,0,0,0-1.64-.67A2.18,2.18,0,0,0,55.47,5.68Z"/><path d="M64.51,10.35a2.6,2.6,0,0,1-1,.2,2.64,2.64,0,0,1-1.06-.22,2.72,2.72,0,0,1-.86-.58A2.81,2.81,0,0,1,61,8.89a2.67,2.67,0,0,1-.21-1.06A2.71,2.71,0,0,1,61,6.77a2.59,2.59,0,0,1,.59-.86,2.72,2.72,0,0,1,.86-.58,2.64,2.64,0,0,1,1.06-.22,2.46,2.46,0,0,1,.81.14,2.18,2.18,0,0,1,.69.41,2.51,2.51,0,0,1,.51.56,2.64,2.64,0,0,1,.37.73l-2.25.91-2.26.9a2.18,2.18,0,0,0,.84,1,2.23,2.23,0,0,0,1.29.39,2.3,2.3,0,0,0,.88-.17,2.12,2.12,0,0,0,.71-.48l.25.3A2.7,2.7,0,0,1,64.51,10.35Zm-2.06-4.6a2.38,2.38,0,0,0-1.23,1.59,2.12,2.12,0,0,0,0,1.06l2.06-.83,2.06-.83a2.24,2.24,0,0,0-.77-.9,1.9,1.9,0,0,0-1.11-.35A2.21,2.21,0,0,0,62.45,5.75Z"/><path d="M67.58,10.45v-.38h1V.38h-1V0H69V10.07h1.15v.38Z"/><path class="cls-1" d="M96.51,10.45v-.38h1.07v-9H96.51V.7h6.78V2.84h-.37V1.07H98V5.35h4.78v.38H98v4.34h1.16v.38Z"/><path class="cls-1" d="M110.05,10.45V9.79c0-.13,0-.25,0-.37V9a2.45,2.45,0,0,1-.34.58,2.34,2.34,0,0,1-.53.46,2.49,2.49,0,0,1-.69.35,3.12,3.12,0,0,1-.82.11,2.67,2.67,0,0,1-1.06-.21,2.74,2.74,0,0,1-.86-.59,2.65,2.65,0,0,1-.59-.85,2.86,2.86,0,0,1-.2-1.06,2.89,2.89,0,0,1,.2-1.06,2.59,2.59,0,0,1,.59-.86,2.56,2.56,0,0,1,.86-.58,2.69,2.69,0,0,1,2.54.22,2.43,2.43,0,0,1,.89,1.08l0-.7c0-.23,0-.47,0-.71h.31v4.85h1v.38Zm-3.28-4.77a2.52,2.52,0,0,0-.75.5,2.67,2.67,0,0,0-.48.75,2.26,2.26,0,0,0-.18.9,2.41,2.41,0,0,0,.18.93,2.09,2.09,0,0,0,.53.74,2.27,2.27,0,0,0,.72.48,2.24,2.24,0,0,0,.89.17,2.27,2.27,0,0,0,.91-.18,2.41,2.41,0,0,0,.75-.48,2.48,2.48,0,0,0,.5-.74,2.32,2.32,0,0,0,.18-.92,2.33,2.33,0,0,0-2.34-2.34A2.15,2.15,0,0,0,106.77,5.68Z"/><path class="cls-1" d="M115.71,10.41a1.82,1.82,0,0,1-.77.15,3.34,3.34,0,0,1-.82-.1,1.68,1.68,0,0,1-.76-.39v-1h.38v.76a1.33,1.33,0,0,0,.6.26,4.6,4.6,0,0,0,.64.05,1.45,1.45,0,0,0,.47-.07,1.26,1.26,0,0,0,.39-.22.93.93,0,0,0,.28-.34,1,1,0,0,0,.11-.49.9.9,0,0,0-.19-.62,1.2,1.2,0,0,0-.49-.32,4.46,4.46,0,0,0-.65-.23,2.58,2.58,0,0,1-.64-.25,1.31,1.31,0,0,1-.5-.37,1.11,1.11,0,0,1-.2-.69,1.35,1.35,0,0,1,.13-.62,1.27,1.27,0,0,1,.33-.43,1.58,1.58,0,0,1,.51-.28,1.91,1.91,0,0,1,.55-.09l.35,0,.39.1a1.79,1.79,0,0,1,.32.13,1.55,1.55,0,0,1,.28.2v1h-.37V5.79a1.66,1.66,0,0,0-.46-.19,2.26,2.26,0,0,0-.53-.06,1.89,1.89,0,0,0-.39,0,1,1,0,0,0-.36.16.9.9,0,0,0-.26.32.88.88,0,0,0-.1.45.77.77,0,0,0,.2.56,1.39,1.39,0,0,0,.5.3,4.44,4.44,0,0,0,.64.24,3.37,3.37,0,0,1,.65.25,1.57,1.57,0,0,1,.49.43,1.17,1.17,0,0,1,.19.71,1.63,1.63,0,0,1-.09.52,1.37,1.37,0,0,1-.28.5A1.54,1.54,0,0,1,115.71,10.41Z"/><path class="cls-1" d="M118.24,10.45v-.38h1.09V.38h-1V0h1.41V6l0,.63a2.47,2.47,0,0,1,.9-1.07,2.54,2.54,0,0,1,1.4-.39,1.61,1.61,0,0,1,1.19.43,1.58,1.58,0,0,1,.47,1.13v3.38h1.07v.38h-2.56v-.38h1.1V6.71a1.32,1.32,0,0,0-.35-.82A1.28,1.28,0,0,0,122,5.5a2.27,2.27,0,0,0-.86.16,2.34,2.34,0,0,0-.71.4,2,2,0,0,0-.5.63,1.84,1.84,0,0,0-.18.8v2.58h1.08v.38Z"/><path class="cls-1" d="M126.37,10.45v-.38h1.12V5.6h-1.12V5.22h1.51v4.85h1.06v.38Zm1.56-6.77a.34.34,0,0,1-.25.11.36.36,0,0,1-.26-.11.31.31,0,0,1-.11-.25.35.35,0,0,1,.11-.27.36.36,0,0,1,.26-.11.34.34,0,0,1,.25.11.36.36,0,0,1,.12.27A.32.32,0,0,1,127.93,3.68Z"/><path class="cls-1" d="M134.4,10.33a2.81,2.81,0,0,1-2.13,0,2.7,2.7,0,0,1-.85-.59,2.59,2.59,0,0,1-.8-1.91,2.71,2.71,0,0,1,.21-1.06,2.78,2.78,0,0,1,.59-.88,2.84,2.84,0,0,1,.85-.58,2.81,2.81,0,0,1,2.13,0,3,3,0,0,1,.89.58,3.13,3.13,0,0,1,.58.88,2.71,2.71,0,0,1,.21,1.06,2.67,2.67,0,0,1-.21,1.06,3,3,0,0,1-.58.85A2.88,2.88,0,0,1,134.4,10.33Zm-2-.36a2.29,2.29,0,0,0,.92.18,2.33,2.33,0,0,0,.9-.18,2.38,2.38,0,0,0,1.24-1.23,2.31,2.31,0,0,0,.18-.91,2.26,2.26,0,0,0-.18-.9,2.52,2.52,0,0,0-.5-.75,2.23,2.23,0,0,0-.74-.51,2.33,2.33,0,0,0-.9-.18,2.29,2.29,0,0,0-.92.18,2.19,2.19,0,0,0-.73.51,2.52,2.52,0,0,0-.5.75,2.26,2.26,0,0,0-.18.9,2.31,2.31,0,0,0,.18.91,2.21,2.21,0,0,0,.5.73A2.16,2.16,0,0,0,132.42,10Z"/><path class="cls-1" d="M137.75,10.45v-.38h1.09V5.6h-1V5.22h1.33v.62c0,.14,0,.26,0,.37s0,.23,0,.38a2.23,2.23,0,0,1,.9-1.07,2.57,2.57,0,0,1,1.4-.39,1.61,1.61,0,0,1,1.19.43,1.58,1.58,0,0,1,.46,1.13v3.38h1.08v.38h-2.57v-.38h1.1V6.71a1.26,1.26,0,0,0-1.26-1.21,2.28,2.28,0,0,0-.87.16,2.46,2.46,0,0,0-.71.4,2,2,0,0,0-.5.63,1.84,1.84,0,0,0-.18.8v2.58h1.09v.38Z"/><path class="cls-1" d="M145.89,10.45v-.38h1v-9h-1V.7h2.92a5.25,5.25,0,0,1,1.9.34,4.82,4.82,0,0,1,1.56,1,4.7,4.7,0,0,1,1.06,1.54,5.09,5.09,0,0,1,.39,2,5.41,5.41,0,0,1-.29,1.69,4.36,4.36,0,0,1-.93,1.57A4.79,4.79,0,0,1,150.84,10a6,6,0,0,1-2.5.46Zm1.34-.38h1.28a5.37,5.37,0,0,0,2.18-.4,4.55,4.55,0,0,0,1.51-1.06,4,4,0,0,0,.86-1.43,4.75,4.75,0,0,0,.28-1.61A4.61,4.61,0,0,0,153,3.71a4.09,4.09,0,0,0-1-1.43,4.46,4.46,0,0,0-1.44-.89,4.79,4.79,0,0,0-1.73-.32h-1.62Z"/><path class="cls-1" d="M159.11,10.35a2.56,2.56,0,0,1-1,.19,2.67,2.67,0,0,1-1.06-.21,2.89,2.89,0,0,1-.86-.58,2.78,2.78,0,0,1-.58-.86,2.67,2.67,0,0,1-.21-1.06,2.71,2.71,0,0,1,.21-1.06A2.72,2.72,0,0,1,157,5.33a2.52,2.52,0,0,1,1.06-.22,2.46,2.46,0,0,1,.81.14,2.15,2.15,0,0,1,.7.41,3.1,3.1,0,0,1,.51.56,3.33,3.33,0,0,1,.37.73l-2.26.91-2.26.9a2.28,2.28,0,0,0,2.13,1.39A2.3,2.3,0,0,0,159,10a2,2,0,0,0,.71-.48l.25.3A2.7,2.7,0,0,1,159.11,10.35Zm-2.06-4.6a2.37,2.37,0,0,0-.8.67,2.34,2.34,0,0,0-.42.92,2.12,2.12,0,0,0,0,1.06l2.06-.83L160,6.74a2.22,2.22,0,0,0-.76-.9,1.88,1.88,0,0,0-1.12-.35A2.1,2.1,0,0,0,157.05,5.75Z"/><path class="cls-1" d="M164.78,10.41a1.82,1.82,0,0,1-.77.15,3.34,3.34,0,0,1-.82-.1,1.6,1.6,0,0,1-.75-.39v-1h.37v.76a1.33,1.33,0,0,0,.6.26,4.6,4.6,0,0,0,.64.05,1.45,1.45,0,0,0,.47-.07,1.26,1.26,0,0,0,.39-.22.93.93,0,0,0,.28-.34,1,1,0,0,0,.11-.49.9.9,0,0,0-.19-.62,1.2,1.2,0,0,0-.49-.32,4.46,4.46,0,0,0-.65-.23,2.58,2.58,0,0,1-.64-.25,1.31,1.31,0,0,1-.5-.37,1.11,1.11,0,0,1-.2-.69,1.35,1.35,0,0,1,.13-.62,1.27,1.27,0,0,1,.33-.43,1.58,1.58,0,0,1,.51-.28,1.91,1.91,0,0,1,.55-.09l.35,0,.39.1a1.79,1.79,0,0,1,.32.13,1.55,1.55,0,0,1,.28.2v1h-.37V5.79a1.54,1.54,0,0,0-.46-.19,2.26,2.26,0,0,0-.53-.06,1.89,1.89,0,0,0-.39,0,1,1,0,0,0-.36.16.9.9,0,0,0-.26.32.88.88,0,0,0-.1.45.77.77,0,0,0,.2.56,1.39,1.39,0,0,0,.5.3,4.44,4.44,0,0,0,.64.24,3.37,3.37,0,0,1,.65.25,1.57,1.57,0,0,1,.49.43,1.17,1.17,0,0,1,.19.71,1.63,1.63,0,0,1-.09.52,1.37,1.37,0,0,1-.28.5A1.54,1.54,0,0,1,164.78,10.41Z"/><path class="cls-1" d="M167.31,10.45v-.38h1.11V5.6h-1.11V5.22h1.5v4.85h1.06v.38Zm1.56-6.77a.36.36,0,0,1-.25.11.4.4,0,0,1-.27-.11.34.34,0,0,1-.11-.25.39.39,0,0,1,.11-.27.4.4,0,0,1,.27-.11.36.36,0,0,1,.25.11.39.39,0,0,1,.11.27A.34.34,0,0,1,168.87,3.68Z"/><path class="cls-1" d="M172.55,12.83a2.12,2.12,0,0,0,.8.51,3,3,0,0,0,1,.18,2.12,2.12,0,0,0,.87-.18,2,2,0,0,0,.71-.55,2.81,2.81,0,0,0,.48-.85,3.6,3.6,0,0,0,.17-1.12v-1c0-.13,0-.26,0-.38s0-.26,0-.39a2.68,2.68,0,0,1-.36.58,2.33,2.33,0,0,1-.52.47,2.5,2.5,0,0,1-.68.32,3,3,0,0,1-.81.11,2.72,2.72,0,0,1-1.07-.21,2.62,2.62,0,0,1-.85-.58,2.59,2.59,0,0,1-.8-1.91,2.71,2.71,0,0,1,.21-1.06,2.59,2.59,0,0,1,.59-.86,2.62,2.62,0,0,1,.85-.58,2.7,2.7,0,0,1,2.53.21,2.52,2.52,0,0,1,.91,1.09c0-.23,0-.46,0-.7s0-.47,0-.71H178V5.6h-1v5.22a4,4,0,0,1-.2,1.3,3,3,0,0,1-.55,1,2.59,2.59,0,0,1-1.85.85,3.55,3.55,0,0,1-1.22-.2,2.32,2.32,0,0,1-.89-.61Zm.78-7.15a2.31,2.31,0,0,0-.73.5,2.49,2.49,0,0,0-.49.75,2.25,2.25,0,0,0-.17.9,2.16,2.16,0,0,0,.18.92,2.33,2.33,0,0,0,.51.74,2.52,2.52,0,0,0,.72.48,2.31,2.31,0,0,0,.91.18,2.36,2.36,0,0,0,.92-.18,2.15,2.15,0,0,0,.75-.5,2.2,2.2,0,0,0,.5-.74,2.4,2.4,0,0,0,.17-.9,2.36,2.36,0,0,0-.18-.92,2.07,2.07,0,0,0-.52-.75,2.4,2.4,0,0,0-.73-.49,2.27,2.27,0,0,0-.91-.18A2.24,2.24,0,0,0,173.33,5.68Z"/><path class="cls-1" d="M179.71,10.45v-.38h1.08V5.6h-1V5.22h1.32v.62c0,.14,0,.26,0,.37s0,.23,0,.38a2.35,2.35,0,0,1,.9-1.07,2.57,2.57,0,0,1,1.4-.39,1.54,1.54,0,0,1,1.66,1.56v3.38h1.07v.38h-2.56v-.38h1.1V6.71a1.28,1.28,0,0,0-.36-.82,1.26,1.26,0,0,0-.91-.39,2.23,2.23,0,0,0-.86.16,2.34,2.34,0,0,0-.71.4,1.92,1.92,0,0,0-.51.63,1.84,1.84,0,0,0-.18.8v2.58h1.09v.38Z"/><path class="cls-1" d="M191.57,10.35a2.59,2.59,0,0,1-1,.19,2.72,2.72,0,0,1-1.07-.21,3,3,0,0,1-.86-.58,2.78,2.78,0,0,1-.58-.86,2.67,2.67,0,0,1-.21-1.06,2.71,2.71,0,0,1,.21-1.06,2.56,2.56,0,0,1,.58-.86,2.66,2.66,0,0,1,.86-.58,2.56,2.56,0,0,1,1.07-.22,2.4,2.4,0,0,1,.8.14,2.05,2.05,0,0,1,.7.41,2.51,2.51,0,0,1,.51.56,3,3,0,0,1,.37.73l-2.26.91-2.25.9a2.16,2.16,0,0,0,.83,1,2.23,2.23,0,0,0,1.3.38,2.28,2.28,0,0,0,.87-.16,2.16,2.16,0,0,0,.72-.48l.25.3A2.83,2.83,0,0,1,191.57,10.35Zm-2.06-4.6a2.51,2.51,0,0,0-.81.67,2.49,2.49,0,0,0-.42.92,2.12,2.12,0,0,0,0,1.06l2.07-.83,2.06-.83a2.24,2.24,0,0,0-.77-.9,1.83,1.83,0,0,0-1.11-.35A2.1,2.1,0,0,0,189.51,5.75Z"/><path class="cls-1" d="M194.64,10.45v-.38h1.09V5.6h-1V5.22H196l0,.74a2.55,2.55,0,0,0,0,.31v.32a2.67,2.67,0,0,1,.41-.62,2.17,2.17,0,0,1,.55-.45,2.72,2.72,0,0,1,.62-.3,2.59,2.59,0,0,1,.68-.09V5.5a2.45,2.45,0,0,0-.83.16,2.36,2.36,0,0,0-.69.4,2.18,2.18,0,0,0-.5.63,1.85,1.85,0,0,0-.19.8v2.58h1.09v.38Z"/><path d="M83.85,2.88a3.39,3.39,0,0,1,0,6.78"/><path class="cls-1" d="M83.85,9.66a3.39,3.39,0,0,1,0-6.78"/></g></g></svg>