<svg xmlns="http://www.w3.org/2000/svg" viewBox="0 0 225.77 11.11"><defs><style>.cls-1{fill:#eaeaea;}</style></defs><g id="Capa_2" data-name="Capa 2"><g id="Capa_1-2" data-name="Capa 1"><path class="cls-1" d="M104,8.84V0h5.47V.58h-4.87V4h4.3v.55h-4.3V8.84Z"/><path class="cls-1" d="M113,8.54a1.61,1.61,0,0,1-.67-1.28A1.58,1.58,0,0,1,113,6a2.83,2.83,0,0,1,1.61-.63,6.56,6.56,0,0,0,1.53-.3c.41-.14.61-.3.61-.49V4a1,1,0,0,0-.53-.83,2.54,2.54,0,0,0-2.52,0,1,1,0,0,0-.51.8v.33h-.56V3.92a1.29,1.29,0,0,1,.67-1.09,2.89,2.89,0,0,1,1.64-.44,3.13,3.13,0,0,1,1.68.43,1.22,1.22,0,0,1,.7,1V7.71a1.29,1.29,0,0,0,.16.64.48.48,0,0,0,.41.27l.13,0a.19.19,0,0,0,.09,0v.28a1.35,1.35,0,0,1-.57.1.78.78,0,0,1-.59-.29,1.12,1.12,0,0,1-.24-.72,1.5,1.5,0,0,1-.76.82,2.79,2.79,0,0,1-1.34.31A2.48,2.48,0,0,1,113,8.54Zm3-.45a2.05,2.05,0,0,0,.74-1.29V5.34a1.68,1.68,0,0,1-.76.29,10.2,10.2,0,0,1-1.38.2,2,2,0,0,0-1.18.48,1.19,1.19,0,0,0-.48,1,1.17,1.17,0,0,0,.49,1,1.76,1.76,0,0,0,1.17.41A2.11,2.11,0,0,0,116,8.09Z"/><path class="cls-1" d="M121.85,8.41A1.84,1.84,0,0,1,121.14,7h.55a1.37,1.37,0,0,0,.55,1.1,2,2,0,0,0,1.33.45,2.36,2.36,0,0,0,1.44-.4A1.31,1.31,0,0,0,125.55,7a1,1,0,0,0-.57-.86,3.56,3.56,0,0,0-1.52-.44,2.94,2.94,0,0,1-1.61-.56A1.44,1.44,0,0,1,121.24,4a1.4,1.4,0,0,1,.61-1.22,2.94,2.94,0,0,1,1.72-.43,2.76,2.76,0,0,1,1.68.46A1.44,1.44,0,0,1,125.89,4h-.56a1.34,1.34,0,0,0-.57-.9,2,2,0,0,0-1.19-.33,2.24,2.24,0,0,0-1.29.33,1,1,0,0,0,.11,1.72,3.56,3.56,0,0,0,1.52.44,2.91,2.91,0,0,1,1.61.59,1.6,1.6,0,0,1,.6,1.27,1.61,1.61,0,0,1-.7,1.36,3.12,3.12,0,0,1-1.85.5A2.55,2.55,0,0,1,121.85,8.41Z"/><path class="cls-1" d="M129.9,8.84V0h.6V3.68a2.4,2.4,0,0,1,.89-1,2.31,2.31,0,0,1,1.27-.38,2,2,0,0,1,1.53.67,2.18,2.18,0,0,1,.65,1.59V8.84h-.6V4.65a1.92,1.92,0,0,0-.46-1.31,1.4,1.4,0,0,0-1.12-.55,2,2,0,0,0-1.33.53,2.7,2.7,0,0,0-.83,1.38V8.84Z"/><path class="cls-1" d="M139,0h.6V.91H139Zm0,8.84V2.49h.6V8.84Z"/><path class="cls-1" d="M144.36,8.05a3.39,3.39,0,0,1-.82-2.39,3.61,3.61,0,0,1,.82-2.47,3,3,0,0,1,4.32,0,3.66,3.66,0,0,1,.81,2.47,3.43,3.43,0,0,1-.81,2.39,3.07,3.07,0,0,1-4.32,0Zm3.89-.36a3,3,0,0,0,.64-2,3.14,3.14,0,0,0-.64-2.08,2.29,2.29,0,0,0-3.46,0,3.14,3.14,0,0,0-.65,2.08,3,3,0,0,0,.65,2,2.35,2.35,0,0,0,3.46,0Z"/><path class="cls-1" d="M153.4,8.84V2.49H154V3.56a2.07,2.07,0,0,1,.82-.89,2.38,2.38,0,0,1,2.82.27,1.94,1.94,0,0,1,.67,1.49V8.84h-.6V4.43a1.47,1.47,0,0,0-.49-1.12A1.65,1.65,0,0,0,156,2.85a2,2,0,0,0-1.32.5,2.2,2.2,0,0,0-.72,1.3V8.84Z"/><path class="cls-1" d="M162.5,0H166a3,3,0,0,1,2.4,1.27,4.8,4.8,0,0,1,1,3,5.25,5.25,0,0,1-1,3.2A2.94,2.94,0,0,1,166,8.84H162.5ZM166,8.27a2.35,2.35,0,0,0,2-1.16,4.7,4.7,0,0,0,.82-2.8A4.24,4.24,0,0,0,168,1.67a2.38,2.38,0,0,0-2-1.09H163.1V8.27Z"/><path class="cls-1" d="M173.58,8.14a3.76,3.76,0,0,1-.78-2.48,3.75,3.75,0,0,1,.78-2.47,2.54,2.54,0,0,1,2.06-.92,2.62,2.62,0,0,1,2.05.85,3.2,3.2,0,0,1,.78,2.26v.28H173.4A3.26,3.26,0,0,0,174,7.74a2,2,0,0,0,1.63.77,2.44,2.44,0,0,0,1.37-.4A2.19,2.19,0,0,0,177.87,7h.6a2.22,2.22,0,0,1-1,1.46,3.08,3.08,0,0,1-1.87.58A2.54,2.54,0,0,1,173.58,8.14Zm4.29-3V4.87a2.31,2.31,0,0,0-.71-1.49,2.23,2.23,0,0,0-1.52-.59,2.11,2.11,0,0,0-1.51.61,2.31,2.31,0,0,0-.73,1.53V5.1Z"/><path class="cls-1" d="M182.46,8.41A1.84,1.84,0,0,1,181.75,7h.55a1.37,1.37,0,0,0,.55,1.1,2,2,0,0,0,1.33.45,2.36,2.36,0,0,0,1.44-.4A1.31,1.31,0,0,0,186.16,7a1,1,0,0,0-.57-.86,3.51,3.51,0,0,0-1.52-.44,2.94,2.94,0,0,1-1.61-.56A1.47,1.47,0,0,1,181.85,4a1.42,1.42,0,0,1,.61-1.22,2.94,2.94,0,0,1,1.72-.43,2.76,2.76,0,0,1,1.68.46A1.44,1.44,0,0,1,186.5,4h-.56a1.34,1.34,0,0,0-.57-.9,2,2,0,0,0-1.19-.33,2.19,2.19,0,0,0-1.28.33,1,1,0,0,0-.48.86,1,1,0,0,0,.58.86,3.6,3.6,0,0,0,1.52.44,2.91,2.91,0,0,1,1.61.59,1.6,1.6,0,0,1,.6,1.27A1.61,1.61,0,0,1,186,8.5a3.12,3.12,0,0,1-1.85.5A2.55,2.55,0,0,1,182.46,8.41Z"/><path class="cls-1" d="M190.51,0h.6V.91h-.6Zm0,8.84V2.49h.6V8.84Z"/><path class="cls-1" d="M195.83,10.51a1.8,1.8,0,0,1-.8-1.46h.57a1.35,1.35,0,0,0,.62,1.1,2.62,2.62,0,0,0,1.54.45,2.28,2.28,0,0,0,1.56-.52,1.77,1.77,0,0,0,.6-1.4V7.38a2.18,2.18,0,0,1-.87,1,2.34,2.34,0,0,1-1.28.38,2.52,2.52,0,0,1-2-.88A3.57,3.57,0,0,1,195,5.5a3.52,3.52,0,0,1,.75-2.35,2.49,2.49,0,0,1,2-.88,2.46,2.46,0,0,1,1.33.38,2.07,2.07,0,0,1,.82,1V2.49h.6v6.2a2.18,2.18,0,0,1-.74,1.77,2.9,2.9,0,0,1-2,.65A3.1,3.1,0,0,1,195.83,10.51Zm3.46-3a3.14,3.14,0,0,0,.63-2,3.16,3.16,0,0,0-.63-2,1.91,1.91,0,0,0-3.08,0,3.16,3.16,0,0,0-.6,2,3.13,3.13,0,0,0,.6,2,1.91,1.91,0,0,0,3.08,0Z"/><path class="cls-1" d="M204.82,8.84V2.49h.6V3.56a2.07,2.07,0,0,1,.82-.89,2.38,2.38,0,0,1,2.82.27,2,2,0,0,1,.67,1.49V8.84h-.6V4.43a1.47,1.47,0,0,0-.49-1.12,1.65,1.65,0,0,0-1.18-.46,2,2,0,0,0-1.32.5,2.2,2.2,0,0,0-.72,1.3V8.84Z"/><path class="cls-1" d="M214.32,8.14a3.76,3.76,0,0,1-.78-2.48,3.75,3.75,0,0,1,.78-2.47,2.54,2.54,0,0,1,2.06-.92,2.62,2.62,0,0,1,2.05.85,3.2,3.2,0,0,1,.78,2.26v.28h-5.07a3.26,3.26,0,0,0,.61,2.08,2,2,0,0,0,1.63.77,2.44,2.44,0,0,0,1.37-.4A2.19,2.19,0,0,0,218.61,7h.6a2.22,2.22,0,0,1-1,1.46,3.08,3.08,0,0,1-1.87.58A2.54,2.54,0,0,1,214.32,8.14Zm4.29-3V4.87a2.31,2.31,0,0,0-.71-1.49,2.23,2.23,0,0,0-1.52-.59,2.11,2.11,0,0,0-1.51.61,2.31,2.31,0,0,0-.73,1.53V5.1Z"/><path class="cls-1" d="M223,8.84V2.49h.6V3.92a2.59,2.59,0,0,1,.74-1.12,1.66,1.66,0,0,1,1.08-.41h.34v.68l-.11,0-.06,0a1.7,1.7,0,0,0-1.26.6,2.87,2.87,0,0,0-.73,1.5V8.84Z"/><path class="cls-1" d="M92.05,6.88a2.33,2.33,0,0,1,0-4.65"/><path d="M92.05,6.88a2.33,2.33,0,0,0,0-4.65"/><path d="M0,8.86V0H4a1.85,1.85,0,0,1,1.46.7,2.52,2.52,0,0,1,.61,1.69,2.71,2.71,0,0,1-.61,1.76A1.85,1.85,0,0,1,4,4.9H.6v4ZM3.89,4.33A1.42,1.42,0,0,0,5,3.79a1.85,1.85,0,0,0,.46-1.28A2.07,2.07,0,0,0,5,1.15,1.43,1.43,0,0,0,3.89.6H.6V4.33Z"/><path d="M9.88,8.56a1.6,1.6,0,0,1-.67-1.28A1.58,1.58,0,0,1,9.87,6a2.81,2.81,0,0,1,1.61-.63A6.56,6.56,0,0,0,13,5.1c.41-.13.61-.3.61-.49V4.05a1,1,0,0,0-.53-.84,2.29,2.29,0,0,0-1.28-.34,2.27,2.27,0,0,0-1.24.33,1,1,0,0,0-.51.8v.33H9.5V3.94a1.29,1.29,0,0,1,.67-1.09,3,3,0,0,1,1.64-.44,3.13,3.13,0,0,1,1.68.43,1.22,1.22,0,0,1,.7,1V7.73a1.29,1.29,0,0,0,.16.64.48.48,0,0,0,.41.27l.13,0a.19.19,0,0,0,.09,0v.28a1.35,1.35,0,0,1-.57.11.76.76,0,0,1-.59-.3A1.12,1.12,0,0,1,13.58,8a1.5,1.5,0,0,1-.76.82,2.79,2.79,0,0,1-1.34.31A2.48,2.48,0,0,1,9.88,8.56Zm3-.44a2,2,0,0,0,.74-1.3V5.36a1.74,1.74,0,0,1-.76.3,10.45,10.45,0,0,1-1.38.19,2,2,0,0,0-1.18.48,1.2,1.2,0,0,0-.48,1,1.16,1.16,0,0,0,.5,1,1.71,1.71,0,0,0,1.16.41A2.15,2.15,0,0,0,12.88,8.12Z"/><path d="M18.53,8.86V2.51h.6V3.94a2.59,2.59,0,0,1,.74-1.12,1.71,1.71,0,0,1,1.07-.41h.35v.68l-.11,0-.06,0a1.7,1.7,0,0,0-1.26.6,2.8,2.8,0,0,0-.73,1.5V8.86Z"/><path d="M24.73,0h.6V.93h-.6Zm0,8.84V2.51h.6V8.86Z"/><path d="M29.83,8.43A1.82,1.82,0,0,1,29.11,7h.55a1.41,1.41,0,0,0,.56,1.11,2.06,2.06,0,0,0,1.32.44A2.39,2.39,0,0,0,33,8.13,1.3,1.3,0,0,0,33.52,7,1,1,0,0,0,33,6.18a3.6,3.6,0,0,0-1.52-.43,2.92,2.92,0,0,1-1.61-.57A1.44,1.44,0,0,1,29.22,4a1.4,1.4,0,0,1,.61-1.22,2.92,2.92,0,0,1,1.71-.43,2.78,2.78,0,0,1,1.69.46,1.47,1.47,0,0,1,.64,1.24H33.3a1.36,1.36,0,0,0-.57-.91,2,2,0,0,0-1.19-.33,2.23,2.23,0,0,0-1.28.33,1,1,0,0,0-.48.86,1,1,0,0,0,.58.87,3.76,3.76,0,0,0,1.53.43,2.94,2.94,0,0,1,1.61.59,1.62,1.62,0,0,1,.59,1.27,1.59,1.59,0,0,1-.7,1.36,3,3,0,0,1-1.85.5A2.52,2.52,0,0,1,29.83,8.43Z"/><path d="M37.88,8.86V0h.94l3.23,8.1L45.27,0h.94V8.86h-.6V.71L42.32,8.86h-.55L38.47.71V8.86Z"/><path d="M50.67,8.56A1.57,1.57,0,0,1,50,7.28,1.59,1.59,0,0,1,50.65,6a2.86,2.86,0,0,1,1.61-.63,6.65,6.65,0,0,0,1.54-.3c.41-.13.61-.3.61-.49V4.05a1,1,0,0,0-.54-.84,2.54,2.54,0,0,0-2.52,0,1,1,0,0,0-.5.8v.33h-.57V3.94A1.29,1.29,0,0,1,51,2.85a3,3,0,0,1,1.64-.44,3.15,3.15,0,0,1,1.69.43,1.24,1.24,0,0,1,.7,1V7.73a1.19,1.19,0,0,0,.16.64.47.47,0,0,0,.4.27l.14,0a.19.19,0,0,0,.09,0v.28A1.35,1.35,0,0,1,55.2,9a.77.77,0,0,1-.6-.3A1.12,1.12,0,0,1,54.36,8a1.47,1.47,0,0,1-.76.82,2.73,2.73,0,0,1-1.34.31A2.47,2.47,0,0,1,50.67,8.56Zm3-.44a2.09,2.09,0,0,0,.75-1.3V5.36a1.79,1.79,0,0,1-.76.3,10.64,10.64,0,0,1-1.39.19,2,2,0,0,0-1.17.48,1.2,1.2,0,0,0-.48,1,1.14,1.14,0,0,0,.49,1,1.75,1.75,0,0,0,1.16.41A2.11,2.11,0,0,0,53.66,8.12Z"/><path d="M60.82,8.68a2.48,2.48,0,0,1-.91-1.06V8.86h-.6V0h.6V3.94a2.38,2.38,0,0,1,.86-1.12,2.42,2.42,0,0,1,1.36-.41,2.44,2.44,0,0,1,2,.91,3.63,3.63,0,0,1,.76,2.43,3.66,3.66,0,0,1-.76,2.43,2.46,2.46,0,0,1-2,.9A2.32,2.32,0,0,1,60.82,8.68Zm2.92-.88a3.25,3.25,0,0,0,.6-2,3.28,3.28,0,0,0-.6-2.06,1.94,1.94,0,0,0-1.61-.78,1.9,1.9,0,0,0-1.56.84,3.07,3.07,0,0,0-.66,2,3.06,3.06,0,0,0,.66,2,1.9,1.9,0,0,0,1.56.84A1.94,1.94,0,0,0,63.74,7.8Z"/><path d="M69.2,8.16a3.75,3.75,0,0,1-.78-2.47,3.76,3.76,0,0,1,.78-2.48,2.55,2.55,0,0,1,2-.92,2.64,2.64,0,0,1,2.06.85,3.2,3.2,0,0,1,.78,2.26v.29H69a3.25,3.25,0,0,0,.61,2.07,2,2,0,0,0,1.62.77,2.4,2.4,0,0,0,1.37-.4A2.15,2.15,0,0,0,73.49,7h.6a2.2,2.2,0,0,1-1,1.46,3.09,3.09,0,0,1-1.88.58A2.52,2.52,0,0,1,69.2,8.16Zm4.29-3V4.9a2.27,2.27,0,0,0-.72-1.5,2.2,2.2,0,0,0-1.52-.59,2.1,2.1,0,0,0-1.5.61A2.31,2.31,0,0,0,69,5v.16Z"/><path d="M77.89,8.86V0h.59V8.86Z"/></g></g></svg>